<?xml version="1.0" standalone="no"?><svg xmlns="http://www.w3.org/2000/svg" viewBox="0 0 1440 320"><path fill="#aa66cc" fill-opacity="1" d="M0,128L40,144C80,160,160,192,240,202.7C320,213,400,203,480,192C560,181,640,171,720,176C800,181,880,203,960,218.7C1040,235,1120,245,1200,224C1280,203,1360,149,1400,122.7L1440,96L1440,320L1400,320C1360,320,1280,320,1200,320C1120,320,1040,320,960,320C880,320,800,320,720,320C640,320,560,320,480,320C400,320,320,320,240,320C160,320,80,320,40,320L0,320Z"></path></svg>