<svg width="853.321" height="150.196" viewBox="0 0 853.321 150.196" xmlns="http://www.w3.org/2000/svg">
    <g id="svgGroup" stroke-linecap="round" fill-rule="evenodd" font-size="9pt" stroke="#37474f3d" stroke-width=".25mm"
        fill="#37474f68" style="stroke:#37474f3d;stroke-width:.25mm;fill:#37474f68">
        <path
            d="M 51.953 27.832 L 88.184 27.832 L 29.981 79.98 L 88.184 130.957 L 51.563 130.957 L 4.395 89.551 A 11.609 11.609 0 0 1 0.039 81.077 A 15.305 15.305 0 0 1 0 79.98 A 12.239 12.239 0 0 1 1.123 74.805 A 12.753 12.753 0 0 1 4.199 70.605 L 51.953 27.832 Z"
            id="0" vector-effect="non-scaling-stroke" />
        <path
            d="M 212.305 124.805 L 212.305 150.195 L 143.457 150.195 A 34.984 34.984 0 0 1 137.669 149.687 A 48.28 48.28 0 0 1 131.934 148.34 Q 125.684 146.484 120.361 142.236 Q 115.039 137.988 111.475 131.201 A 29.408 29.408 0 0 1 108.801 123.645 Q 107.91 119.482 107.91 114.551 L 107.91 80.176 A 35.332 35.332 0 0 1 108.285 75.144 A 42.696 42.696 0 0 1 108.74 72.559 A 39.02 39.02 0 0 1 111.219 64.847 A 43.029 43.029 0 0 1 111.328 64.6 Q 113.086 60.645 115.869 57.031 A 29.852 29.852 0 0 1 122.577 50.705 A 33.793 33.793 0 0 1 122.608 50.684 A 32.502 32.502 0 0 1 128.623 47.432 A 39.475 39.475 0 0 1 131.738 46.289 A 33.919 33.919 0 0 1 137.994 44.947 A 45.067 45.067 0 0 1 143.457 44.629 L 212.305 44.629 L 212.305 70.02 L 143.457 70.02 A 15.646 15.646 0 0 0 140.578 70.267 Q 138.941 70.574 137.662 71.261 A 7.747 7.747 0 0 0 135.889 72.559 Q 133.301 75.098 133.301 80.371 L 133.301 114.551 A 15.039 15.039 0 0 0 133.578 117.534 Q 133.935 119.294 134.75 120.647 A 7.933 7.933 0 0 0 135.938 122.168 Q 138.227 124.457 142.356 124.759 A 17.794 17.794 0 0 0 143.652 124.805 L 212.305 124.805 Z"
            id="1" vector-effect="non-scaling-stroke" />
        <path
            d="M 347.363 80.176 L 347.363 114.551 Q 347.363 121.094 345.703 126.318 Q 344.043 131.543 341.309 135.498 A 29.895 29.895 0 0 1 335.074 142.149 A 28.397 28.397 0 0 1 334.961 142.236 Q 331.348 145.02 327.393 146.777 A 38.903 38.903 0 0 1 319.385 149.365 A 41.596 41.596 0 0 1 314.727 150.058 A 33.963 33.963 0 0 1 311.719 150.195 L 265.918 150.195 A 34.984 34.984 0 0 1 260.13 149.687 A 48.28 48.28 0 0 1 254.395 148.34 Q 248.145 146.484 242.822 142.236 Q 237.5 137.988 233.936 131.201 A 29.408 29.408 0 0 1 231.262 123.645 Q 230.371 119.482 230.371 114.551 L 230.371 80.176 A 44.622 44.622 0 0 1 230.959 72.733 Q 231.682 68.466 233.29 64.941 A 26.397 26.397 0 0 1 233.936 63.623 A 37.119 37.119 0 0 1 238.645 56.624 A 31.174 31.174 0 0 1 242.822 52.588 Q 248.145 48.34 254.395 46.484 Q 260.645 44.629 265.918 44.629 L 311.719 44.629 Q 320.579 44.629 327.027 47.522 A 26.974 26.974 0 0 1 328.32 48.145 A 36.144 36.144 0 0 1 335.156 52.654 A 29.97 29.97 0 0 1 339.356 56.982 A 35.057 35.057 0 0 1 345.459 68.555 A 46.67 46.67 0 0 1 346.872 74.494 A 34.658 34.658 0 0 1 347.363 80.176 Z M 321.973 114.551 L 321.973 80.371 Q 321.973 75.098 319.336 72.559 A 8.486 8.486 0 0 0 315.873 70.577 Q 314.565 70.176 312.991 70.064 A 17.81 17.81 0 0 0 311.719 70.02 L 266.113 70.02 A 15.955 15.955 0 0 0 263.178 70.272 Q 261.509 70.585 260.206 71.285 A 7.89 7.89 0 0 0 258.399 72.607 A 8.258 8.258 0 0 0 256.303 76.153 Q 255.898 77.476 255.796 79.074 A 17.341 17.341 0 0 0 255.762 80.176 L 255.762 114.551 A 15.039 15.039 0 0 0 256.039 117.534 Q 256.396 119.294 257.211 120.647 A 7.933 7.933 0 0 0 258.399 122.168 Q 260.688 124.457 264.817 124.759 A 17.794 17.794 0 0 0 266.113 124.805 L 311.719 124.805 Q 315.18 124.805 317.462 123.626 A 7.477 7.477 0 0 0 319.434 122.168 A 8.486 8.486 0 0 0 321.415 118.705 Q 321.816 117.397 321.929 115.823 A 17.81 17.81 0 0 0 321.973 114.551 Z"
            id="2" vector-effect="non-scaling-stroke" />
        <path
            d="M 484.766 0 L 484.766 114.551 Q 484.766 121.094 483.106 126.318 Q 481.445 131.543 478.711 135.498 A 29.895 29.895 0 0 1 472.476 142.149 A 28.397 28.397 0 0 1 472.363 142.236 Q 468.75 145.02 464.795 146.777 A 38.903 38.903 0 0 1 456.787 149.365 A 41.596 41.596 0 0 1 452.13 150.058 A 33.963 33.963 0 0 1 449.121 150.195 L 403.32 150.195 A 44.228 44.228 0 0 1 397.119 149.78 A 33.365 33.365 0 0 1 391.602 148.535 A 35.911 35.911 0 0 1 385.609 146.021 A 30.255 30.255 0 0 1 382.471 144.092 A 31.041 31.041 0 0 1 376.265 138.366 A 29.056 29.056 0 0 1 375.733 137.695 Q 372.949 134.082 371.192 130.127 A 38.903 38.903 0 0 1 368.604 122.119 A 42.23 42.23 0 0 1 367.938 117.788 A 33.06 33.06 0 0 1 367.774 114.551 L 367.774 80.176 A 44.622 44.622 0 0 1 368.362 72.733 Q 369.084 68.466 370.692 64.941 A 26.397 26.397 0 0 1 371.338 63.623 A 37.119 37.119 0 0 1 376.047 56.624 A 31.174 31.174 0 0 1 380.225 52.588 Q 385.547 48.34 391.797 46.484 Q 398.047 44.629 403.32 44.629 L 449.121 44.629 L 449.121 70.02 L 403.516 70.02 A 15.955 15.955 0 0 0 400.58 70.272 Q 398.912 70.585 397.608 71.285 A 7.89 7.89 0 0 0 395.801 72.607 A 8.258 8.258 0 0 0 393.706 76.153 Q 393.3 77.476 393.198 79.074 A 17.341 17.341 0 0 0 393.164 80.176 L 393.164 114.355 A 16.49 16.49 0 0 0 393.416 117.338 Q 393.719 118.981 394.385 120.268 A 7.84 7.84 0 0 0 395.752 122.168 A 8.258 8.258 0 0 0 399.298 124.263 Q 400.621 124.669 402.219 124.771 A 17.341 17.341 0 0 0 403.32 124.805 L 449.121 124.805 Q 452.582 124.805 454.864 123.626 A 7.477 7.477 0 0 0 456.836 122.168 A 8.486 8.486 0 0 0 458.817 118.705 Q 459.218 117.397 459.331 115.823 A 17.81 17.81 0 0 0 459.375 114.551 L 459.375 0 L 484.766 0 Z"
            id="3" vector-effect="non-scaling-stroke" />
        <path
            d="M 587.598 114.551 L 541.797 114.551 L 541.797 90.43 L 587.598 90.43 A 13.532 13.532 0 0 0 590.879 90.055 A 9.134 9.134 0 0 0 595.606 87.256 A 11.085 11.085 0 0 0 598.388 80.613 A 14.582 14.582 0 0 0 598.438 79.395 A 12.596 12.596 0 0 0 598.028 76.092 A 9.1 9.1 0 0 0 595.264 71.582 A 11.073 11.073 0 0 0 587.808 68.752 A 14.107 14.107 0 0 0 587.598 68.75 L 541.797 68.75 A 13.532 13.532 0 0 0 538.516 69.125 A 9.134 9.134 0 0 0 533.789 71.924 A 11.085 11.085 0 0 0 531.007 78.567 A 14.582 14.582 0 0 0 530.957 79.785 L 530.957 115.234 A 13.027 13.027 0 0 0 531.358 118.561 A 9.107 9.107 0 0 0 534.131 123.145 A 11.085 11.085 0 0 0 540.774 125.927 A 14.582 14.582 0 0 0 541.992 125.977 L 587.598 125.977 L 587.598 150.195 L 541.797 150.195 A 34.569 34.569 0 0 1 535.691 149.624 A 46.227 46.227 0 0 1 530.42 148.34 Q 524.317 146.484 519.092 142.334 Q 513.867 138.184 510.352 131.494 Q 507.042 125.197 506.848 116.346 A 50.748 50.748 0 0 1 506.836 115.234 L 506.836 79.59 A 34.569 34.569 0 0 1 507.407 73.484 A 46.227 46.227 0 0 1 508.692 68.213 Q 510.547 62.109 514.697 56.885 Q 518.848 51.66 525.537 48.145 Q 531.835 44.835 540.685 44.641 A 50.748 50.748 0 0 1 541.797 44.629 L 587.598 44.629 A 34.569 34.569 0 0 1 593.703 45.2 A 46.227 46.227 0 0 1 598.975 46.484 Q 605.078 48.34 610.303 52.49 Q 615.527 56.641 619.043 63.33 Q 622.353 69.628 622.547 78.478 A 50.748 50.748 0 0 1 622.559 79.59 A 34.569 34.569 0 0 1 621.988 85.695 A 46.227 46.227 0 0 1 620.703 90.967 Q 618.848 97.07 614.697 102.295 Q 610.547 107.52 603.858 111.035 Q 597.56 114.345 588.709 114.539 A 50.748 50.748 0 0 1 587.598 114.551 Z"
            id="4" vector-effect="non-scaling-stroke" />
        <path d="M 720.117 10.156 L 747.266 10.156 L 658.887 150.195 L 631.641 150.195 L 720.117 10.156 Z" id="5"
            vector-effect="non-scaling-stroke" />
        <path
            d="M 765.137 27.832 L 801.27 27.832 L 849.121 70.605 A 12.753 12.753 0 0 1 852.197 74.805 A 12.239 12.239 0 0 1 853.32 79.98 Q 853.32 82.813 852.149 85.303 A 12.581 12.581 0 0 1 848.926 89.551 L 801.66 130.957 L 765.137 130.957 L 823.34 79.98 L 765.137 27.832 Z"
            id="6" vector-effect="non-scaling-stroke" />
    </g>
</svg>