<svg width="1078.701" height="148.901" viewBox="0 0 1078.701 148.901" xmlns="http://www.w3.org/2000/svg"><g id="svgGroup" stroke-linecap="round" fill-rule="evenodd" font-size="9pt" stroke="#37474f3d" stroke-width="0.25mm" fill="#37474f68" style="stroke:#37474f3d;stroke-width:0.25mm;fill:#37474f68"><path d="M 107.801 124.8 L 107.801 93.2 L 85.601 93.2 A 5.334 5.334 0 0 1 84.281 93.045 A 3.82 3.82 0 0 1 82.551 92.1 A 3.581 3.581 0 0 1 81.402 89.5 A 4.389 4.389 0 0 1 81.401 89.4 L 81.401 78.4 L 125.401 78.4 L 125.401 133.4 Q 120.001 137.3 114.151 140.2 A 76.184 76.184 0 0 1 102.479 144.803 A 83.932 83.932 0 0 1 101.651 145.05 Q 95.001 147 87.401 147.95 A 121.725 121.725 0 0 1 77.918 148.743 A 152.451 152.451 0 0 1 70.901 148.9 Q 55.301 148.9 42.301 143.55 Q 29.301 138.2 19.901 128.55 Q 10.501 118.9 5.251 105.4 A 77.735 77.735 0 0 1 0.35 83.874 A 93.962 93.962 0 0 1 0.001 75.7 A 90.648 90.648 0 0 1 1.722 57.707 A 75.113 75.113 0 0 1 5.151 45.8 A 66.893 66.893 0 0 1 16.39 26.445 A 62.883 62.883 0 0 1 19.851 22.65 A 64.952 64.952 0 0 1 40.445 8.732 A 75.327 75.327 0 0 1 42.951 7.7 A 76.762 76.762 0 0 1 62.135 3.026 A 96.743 96.743 0 0 1 73.301 2.4 A 101.996 101.996 0 0 1 82.972 2.841 A 82.945 82.945 0 0 1 89.101 3.65 A 77.565 77.565 0 0 1 98.642 5.889 A 66.55 66.55 0 0 1 102.651 7.25 A 63.855 63.855 0 0 1 112.861 12.128 A 58.603 58.603 0 0 1 114.201 12.95 Q 119.501 16.3 124.101 20.5 L 118.601 29.3 A 6.982 6.982 0 0 1 117.441 30.724 A 4.626 4.626 0 0 1 114.201 32 A 5.491 5.491 0 0 1 112.662 31.766 Q 112.018 31.578 111.333 31.239 A 10.954 10.954 0 0 1 110.701 30.9 Q 108.552 29.697 105.961 28.051 A 145.042 145.042 0 0 1 105.101 27.5 Q 102.001 25.5 97.551 23.65 A 49.706 49.706 0 0 0 93.027 22.036 Q 90.265 21.191 87.051 20.5 A 53.72 53.72 0 0 0 81.354 19.614 Q 78.393 19.305 75.034 19.227 A 99.941 99.941 0 0 0 72.701 19.2 A 63.946 63.946 0 0 0 59.901 20.433 A 52.194 52.194 0 0 0 50.801 23.15 Q 41.001 27.1 34.101 34.45 A 48.565 48.565 0 0 0 25.035 48.363 A 57.928 57.928 0 0 0 23.501 52.25 A 63.809 63.809 0 0 0 20.343 66.121 A 81.879 81.879 0 0 0 19.801 75.7 A 82.138 82.138 0 0 0 20.748 88.468 A 62.106 62.106 0 0 0 23.651 99.95 A 54.735 54.735 0 0 0 29.513 111.723 A 47.018 47.018 0 0 0 34.501 118 Q 41.501 125.4 51.101 129.3 Q 60.701 133.2 72.301 133.2 Q 78.101 133.2 82.951 132.65 A 70.314 70.314 0 0 0 89.778 131.546 A 61.041 61.041 0 0 0 92.101 131 A 63.709 63.709 0 0 0 98.758 128.915 A 56.773 56.773 0 0 0 100.201 128.35 Q 104.001 126.8 107.801 124.8 Z" id="0" vector-effect="non-scaling-stroke"/><path d="M 230.201 96.7 L 162.801 96.7 A 69.225 69.225 0 0 0 163.397 104.621 Q 163.949 108.659 164.996 112.133 A 40.113 40.113 0 0 0 165.401 113.4 Q 167.801 120.5 172.001 125.25 Q 176.201 130 182.001 132.35 A 31.927 31.927 0 0 0 190.216 134.422 A 40.07 40.07 0 0 0 195.001 134.7 A 48.889 48.889 0 0 0 200.139 134.444 Q 203.671 134.07 206.551 133.15 A 68.115 68.115 0 0 0 210.536 131.746 Q 212.932 130.813 214.901 129.8 A 86.3 86.3 0 0 0 217.364 128.485 Q 218.563 127.819 219.586 127.19 A 42.695 42.695 0 0 0 220.751 126.45 A 13.676 13.676 0 0 1 222.021 125.701 Q 223.465 124.958 224.621 124.904 A 3.846 3.846 0 0 1 224.801 124.9 A 4.534 4.534 0 0 1 226.339 125.149 A 3.832 3.832 0 0 1 228.201 126.6 L 233.201 133.1 A 33.807 33.807 0 0 1 225.31 140.044 A 43.103 43.103 0 0 1 225.301 140.05 Q 220.701 143 215.451 144.9 Q 210.201 146.8 204.601 147.75 Q 199.001 148.7 193.501 148.7 Q 183.001 148.7 174.151 145.15 Q 165.301 141.6 158.851 134.75 A 44.824 44.824 0 0 1 151.329 123.795 A 55.771 55.771 0 0 1 148.801 117.8 A 60.167 60.167 0 0 1 145.94 105.856 A 81.828 81.828 0 0 1 145.201 94.6 A 61.162 61.162 0 0 1 146.88 80.086 A 54.728 54.728 0 0 1 148.451 74.8 A 47.821 47.821 0 0 1 155.098 62.149 A 44.083 44.083 0 0 1 157.801 58.85 A 42.973 42.973 0 0 1 172.427 48.371 A 49.194 49.194 0 0 1 172.701 48.25 A 45.845 45.845 0 0 1 185.841 44.776 A 57.456 57.456 0 0 1 192.501 44.4 Q 201.601 44.4 209.301 47.45 Q 217.001 50.5 222.601 56.25 A 38.236 38.236 0 0 1 229.505 66.151 A 46.786 46.786 0 0 1 231.351 70.45 A 48.953 48.953 0 0 1 233.94 81.006 A 64.765 64.765 0 0 1 234.501 89.7 A 30.698 30.698 0 0 1 234.451 91.515 Q 234.296 94.134 233.648 95.223 A 2.552 2.552 0 0 1 233.601 95.3 A 2.748 2.748 0 0 1 232.248 96.371 Q 231.752 96.566 231.123 96.646 A 7.383 7.383 0 0 1 230.201 96.7 Z M 163.401 85.6 L 218.501 85.6 A 39.363 39.363 0 0 0 217.933 78.782 A 32.24 32.24 0 0 0 216.801 74.25 A 26.327 26.327 0 0 0 213.707 67.83 A 23.642 23.642 0 0 0 211.801 65.35 Q 208.501 61.6 203.751 59.55 A 24.726 24.726 0 0 0 197.308 57.791 A 32.182 32.182 0 0 0 192.901 57.5 A 36.007 36.007 0 0 0 184.425 58.441 A 24.356 24.356 0 0 0 172.601 64.95 A 30.1 30.1 0 0 0 165.949 75.402 Q 164.167 79.98 163.401 85.6 Z" id="1" vector-effect="non-scaling-stroke"/><path d="M 263.001 122.9 L 263.001 60.9 L 250.801 60.9 A 4.46 4.46 0 0 1 249.411 60.691 A 3.778 3.778 0 0 1 248.101 59.95 A 2.958 2.958 0 0 1 247.227 58.597 Q 247.001 57.906 247.001 57 L 247.001 49.9 L 263.601 47.8 L 267.701 16.5 Q 267.901 15 269.001 14.05 A 3.852 3.852 0 0 1 270.928 13.169 A 5.313 5.313 0 0 1 271.801 13.1 L 280.801 13.1 L 280.801 48 L 309.801 48 L 309.801 60.9 L 280.801 60.9 L 280.801 121.7 Q 280.801 125.815 282.082 128.566 A 9.148 9.148 0 0 0 283.901 131.2 A 10.46 10.46 0 0 0 290.414 134.224 A 14.257 14.257 0 0 0 291.901 134.3 A 17.603 17.603 0 0 0 294.169 134.162 Q 295.317 134.012 296.304 133.702 A 10.244 10.244 0 0 0 296.751 133.55 A 24.823 24.823 0 0 0 298.552 132.814 Q 299.504 132.378 300.301 131.9 Q 301.449 131.211 302.334 130.61 A 26.939 26.939 0 0 0 302.851 130.25 Q 303.895 129.505 304.691 129.5 A 1.703 1.703 0 0 1 304.701 129.5 A 2.355 2.355 0 0 1 306.141 130.008 Q 306.5 130.277 306.834 130.691 A 5.987 5.987 0 0 1 307.201 131.2 L 312.401 139.7 A 32.056 32.056 0 0 1 304.054 145.29 A 38.187 38.187 0 0 1 301.301 146.45 Q 294.801 148.9 287.901 148.9 A 34.478 34.478 0 0 1 280.623 148.179 Q 273.785 146.702 269.451 142.2 A 21.573 21.573 0 0 1 264.418 133.416 Q 263.001 128.806 263.001 122.9 Z" id="2" vector-effect="non-scaling-stroke"/><path d="M 396.201 4 L 396.201 147.3 L 376.801 147.3 L 376.801 4 L 396.201 4 Z" id="4" vector-effect="non-scaling-stroke"/><path d="M 449.601 147.3 L 431.801 147.3 L 431.801 46 L 442.401 46 Q 445.646 46 446.849 48.698 A 6.839 6.839 0 0 1 447.201 49.7 L 448.601 60.7 A 57.198 57.198 0 0 1 462.338 49.473 A 54.172 54.172 0 0 1 463.351 48.9 A 35.974 35.974 0 0 1 476.073 44.797 A 46 46 0 0 1 482.201 44.4 A 42.754 42.754 0 0 1 489.554 45.004 A 32.245 32.245 0 0 1 496.851 47.15 Q 503.201 49.9 507.451 54.95 A 32.718 32.718 0 0 1 512.501 63.268 A 40.03 40.03 0 0 1 513.901 67.1 Q 516.101 74.2 516.101 82.8 L 516.101 147.3 L 498.301 147.3 L 498.301 82.8 A 40.502 40.502 0 0 0 497.737 75.817 Q 497.087 72.106 495.685 69.131 A 19.711 19.711 0 0 0 493.051 64.95 A 16.613 16.613 0 0 0 484.592 59.569 Q 481.22 58.6 477.001 58.6 Q 469.101 58.6 462.251 62.4 Q 455.401 66.2 449.601 72.7 L 449.601 147.3 Z" id="5" vector-effect="non-scaling-stroke"/><path d="M 569.801 4 L 682.001 4 L 682.001 20.3 L 635.701 20.3 L 635.701 147.3 L 616.301 147.3 L 616.301 20.3 L 569.801 20.3 L 569.801 4 Z" id="7" vector-effect="non-scaling-stroke"/><path d="M 719.601 44.4 Q 730.701 44.4 739.651 48.1 Q 748.601 51.8 754.851 58.6 A 44.886 44.886 0 0 1 762.847 70.965 A 53.827 53.827 0 0 1 764.451 75.05 Q 767.801 84.7 767.801 96.6 A 73.894 73.894 0 0 1 766.883 108.505 A 57.473 57.473 0 0 1 764.451 118.2 A 49.19 49.19 0 0 1 758.969 129.351 A 43.036 43.036 0 0 1 754.851 134.6 Q 748.601 141.4 739.651 145.05 A 49.151 49.151 0 0 1 726.654 148.307 A 61.601 61.601 0 0 1 719.601 148.7 Q 708.501 148.7 699.551 145.05 Q 690.601 141.4 684.301 134.6 A 45.429 45.429 0 0 1 675.993 121.737 A 54.063 54.063 0 0 1 674.601 118.2 Q 671.201 108.6 671.201 96.6 A 72.141 72.141 0 0 1 672.16 84.591 A 57.398 57.398 0 0 1 674.601 75.05 A 49.532 49.532 0 0 1 679.984 64.101 A 43.094 43.094 0 0 1 684.301 58.6 Q 690.601 51.8 699.551 48.1 A 48.683 48.683 0 0 1 712.711 44.78 A 60.905 60.905 0 0 1 719.601 44.4 Z M 719.601 134.8 A 35.379 35.379 0 0 0 728.602 133.724 A 23.543 23.543 0 0 0 742.001 124.75 A 34.323 34.323 0 0 0 747.124 114.223 Q 749.401 106.684 749.401 96.7 A 71.953 71.953 0 0 0 748.678 86.169 Q 747.088 75.444 742.001 68.5 Q 734.601 58.4 719.601 58.4 A 37.581 37.581 0 0 0 713.334 58.898 Q 709.61 59.528 706.5 60.954 A 23.866 23.866 0 0 0 706.401 61 Q 700.801 63.6 697.051 68.5 Q 693.301 73.4 691.451 80.55 A 56.197 56.197 0 0 0 690.007 88.669 A 75.812 75.812 0 0 0 689.601 96.7 Q 689.601 105.7 691.451 112.8 A 38.087 38.087 0 0 0 693.689 119.15 A 28.867 28.867 0 0 0 697.051 124.75 Q 700.801 129.6 706.401 132.2 A 27.103 27.103 0 0 0 713.281 134.293 A 37.527 37.527 0 0 0 719.601 134.8 Z" id="8" vector-effect="non-scaling-stroke"/><path d="M 787.401 46 L 805.201 46 L 805.201 110.6 A 40.127 40.127 0 0 0 805.758 117.51 Q 806.919 124.143 810.501 128.4 Q 815.801 134.7 826.501 134.7 Q 834.301 134.7 841.201 131 A 43.503 43.503 0 0 0 850.551 124.183 A 52.68 52.68 0 0 0 853.901 120.7 L 853.901 46 L 871.701 46 L 871.701 147.3 L 861.101 147.3 Q 857.856 147.3 856.653 144.602 A 6.839 6.839 0 0 1 856.301 143.6 L 854.901 132.7 A 55.844 55.844 0 0 1 840.612 144.169 A 53.26 53.26 0 0 1 840.101 144.45 A 36.665 36.665 0 0 1 827.074 148.548 A 46.119 46.119 0 0 1 821.301 148.9 A 42.754 42.754 0 0 1 813.948 148.296 A 32.245 32.245 0 0 1 806.651 146.15 Q 800.301 143.4 796.001 138.4 A 31.352 31.352 0 0 1 790.845 129.924 A 38.437 38.437 0 0 1 789.551 126.3 A 49.702 49.702 0 0 1 787.703 116.839 A 62.511 62.511 0 0 1 787.401 110.6 L 787.401 46 Z" id="9" vector-effect="non-scaling-stroke"/><path d="M 974.801 57.6 L 970.101 64 Q 969.473 64.864 968.845 65.419 A 5.514 5.514 0 0 1 968.501 65.7 A 2.657 2.657 0 0 1 967.701 66.099 Q 967.335 66.215 966.891 66.264 A 6.316 6.316 0 0 1 966.201 66.3 Q 965.013 66.3 963.668 65.516 A 9.269 9.269 0 0 1 962.951 65.05 A 33.417 33.417 0 0 0 961.505 64.077 Q 960.847 63.657 960.096 63.213 A 67.74 67.74 0 0 0 958.501 62.3 A 29.569 29.569 0 0 0 955.918 61.035 Q 954.117 60.253 951.951 59.55 A 23.25 23.25 0 0 0 948.391 58.718 Q 945.738 58.3 942.501 58.3 A 35.153 35.153 0 0 0 935.539 58.96 A 27.326 27.326 0 0 0 929.401 60.95 Q 923.701 63.6 919.851 68.6 A 31.737 31.737 0 0 0 915.781 75.67 A 40.595 40.595 0 0 0 914.051 80.7 Q 912.101 87.8 912.101 96.6 Q 912.101 105.8 914.201 112.95 A 41.603 41.603 0 0 0 916.543 119.148 A 31.03 31.03 0 0 0 920.101 124.95 Q 923.901 129.8 929.351 132.35 Q 934.801 134.9 941.601 134.9 A 44.884 44.884 0 0 0 945.976 134.7 Q 948.02 134.499 949.766 134.097 A 20.81 20.81 0 0 0 952.301 133.35 Q 955.894 132.024 958.462 130.442 A 22.645 22.645 0 0 0 959.301 129.9 A 70.656 70.656 0 0 0 961.26 128.524 Q 962.206 127.834 963 127.198 A 33.614 33.614 0 0 0 963.901 126.45 A 7.755 7.755 0 0 1 965.138 125.568 Q 966.32 124.9 967.501 124.9 A 4.902 4.902 0 0 1 968.881 125.083 A 3.515 3.515 0 0 1 970.901 126.6 L 975.901 133.1 Q 969.301 141.2 959.401 144.95 Q 949.501 148.7 938.501 148.7 A 45.323 45.323 0 0 1 924.745 146.648 A 41.92 41.92 0 0 1 920.851 145.2 Q 912.701 141.7 906.701 135.05 A 44.929 44.929 0 0 1 899.79 124.737 A 56.418 56.418 0 0 1 897.251 118.7 A 58.191 58.191 0 0 1 894.461 106.933 A 77.515 77.515 0 0 1 893.801 96.6 Q 893.801 85.3 896.951 75.7 A 49.785 49.785 0 0 1 902.334 64.241 A 43.874 43.874 0 0 1 906.151 59.15 A 41.628 41.628 0 0 1 920.823 48.423 A 47.789 47.789 0 0 1 921.101 48.3 A 45.727 45.727 0 0 1 933.077 44.972 A 59.852 59.852 0 0 1 941.501 44.4 A 55.51 55.51 0 0 1 951.354 45.236 A 42.392 42.392 0 0 1 960.301 47.85 Q 968.501 51.3 974.801 57.6 Z" id="10" vector-effect="non-scaling-stroke"/><path d="M 1012.201 147.3 L 994.401 147.3 L 994.401 0 L 1012.201 0 L 1012.201 59.6 A 55.243 55.243 0 0 1 1024.648 49.63 A 51.701 51.701 0 0 1 1026.601 48.55 Q 1034.501 44.4 1044.801 44.4 A 42.754 42.754 0 0 1 1052.154 45.004 A 32.245 32.245 0 0 1 1059.451 47.15 Q 1065.801 49.9 1070.051 54.95 A 32.718 32.718 0 0 1 1075.101 63.268 A 40.03 40.03 0 0 1 1076.501 67.1 Q 1078.701 74.2 1078.701 82.8 L 1078.701 147.3 L 1060.901 147.3 L 1060.901 82.8 A 40.502 40.502 0 0 0 1060.337 75.817 Q 1059.687 72.106 1058.285 69.131 A 19.711 19.711 0 0 0 1055.651 64.95 A 16.613 16.613 0 0 0 1047.192 59.569 Q 1043.82 58.6 1039.601 58.6 Q 1031.701 58.6 1024.851 62.4 Q 1018.001 66.2 1012.201 72.7 L 1012.201 147.3 Z" id="11" vector-effect="non-scaling-stroke"/></g></svg>