<svg width="925.391" height="185.84" viewBox="0 0 925.391 185.84" xmlns="http://www.w3.org/2000/svg"><g id="svgGroup" stroke-linecap="round" fill-rule="evenodd" font-size="9pt" stroke="#37474f3d" stroke-width=".25mm" fill="#37474f68" style="stroke:#37474f3d;stroke-width:.25mm;fill:#37474f68"><path d="M 128.613 0 L 128.613 104.395 A 38.711 38.711 0 0 1 127.191 115.003 A 35.154 35.154 0 0 1 125.977 118.555 A 33.935 33.935 0 0 1 118.604 129.883 A 33.64 33.64 0 0 1 107.324 137.354 A 36.301 36.301 0 0 1 95.684 139.96 A 42.679 42.679 0 0 1 93.066 140.039 L 0 140.039 L 0 114.648 L 93.066 114.648 A 13.191 13.191 0 0 0 96.047 114.331 Q 98.405 113.784 100.044 112.296 A 8.378 8.378 0 0 0 100.391 111.963 Q 102.857 109.451 103.016 105.017 A 17.315 17.315 0 0 0 103.027 104.395 L 103.027 0 L 128.613 0 Z" id="0" vector-effect="non-scaling-stroke"/><path d="M 269.141 70.02 L 269.141 104.395 Q 269.141 110.938 267.48 116.162 Q 265.82 121.387 263.086 125.342 A 29.895 29.895 0 0 1 256.851 131.993 A 28.397 28.397 0 0 1 256.738 132.08 Q 253.125 134.863 249.17 136.621 A 38.903 38.903 0 0 1 241.162 139.209 A 41.596 41.596 0 0 1 236.504 139.902 A 33.963 33.963 0 0 1 233.496 140.039 L 187.695 140.039 A 34.984 34.984 0 0 1 181.907 139.531 A 48.28 48.28 0 0 1 176.172 138.184 Q 169.922 136.328 164.6 132.08 Q 159.277 127.832 155.713 121.045 A 29.408 29.408 0 0 1 153.04 113.489 Q 152.148 109.326 152.148 104.395 L 152.148 70.02 A 44.622 44.622 0 0 1 152.737 62.577 Q 153.459 58.31 155.067 54.785 A 26.397 26.397 0 0 1 155.713 53.467 A 37.119 37.119 0 0 1 160.422 46.468 A 31.174 31.174 0 0 1 164.6 42.432 Q 169.922 38.184 176.172 36.328 Q 182.422 34.473 187.695 34.473 L 233.496 34.473 Q 242.356 34.473 248.804 37.366 A 26.974 26.974 0 0 1 250.098 37.988 A 36.144 36.144 0 0 1 256.933 42.497 A 29.97 29.97 0 0 1 261.133 46.826 A 35.057 35.057 0 0 1 267.236 58.398 A 46.67 46.67 0 0 1 268.65 64.338 A 34.658 34.658 0 0 1 269.141 70.02 Z M 243.75 104.395 L 243.75 70.215 Q 243.75 64.941 241.113 62.402 A 8.486 8.486 0 0 0 237.65 60.421 Q 236.342 60.02 234.769 59.907 A 17.81 17.81 0 0 0 233.496 59.863 L 187.891 59.863 A 15.955 15.955 0 0 0 184.955 60.116 Q 183.286 60.429 181.983 61.129 A 7.89 7.89 0 0 0 180.176 62.451 A 8.258 8.258 0 0 0 178.08 65.997 Q 177.675 67.32 177.573 68.918 A 17.341 17.341 0 0 0 177.539 70.02 L 177.539 104.395 A 15.039 15.039 0 0 0 177.816 107.378 Q 178.173 109.138 178.988 110.491 A 7.933 7.933 0 0 0 180.176 112.012 Q 182.465 114.301 186.594 114.603 A 17.794 17.794 0 0 0 187.891 114.648 L 233.496 114.648 Q 236.957 114.648 239.239 113.47 A 7.477 7.477 0 0 0 241.211 112.012 A 8.486 8.486 0 0 0 243.192 108.549 Q 243.593 107.241 243.706 105.667 A 17.81 17.81 0 0 0 243.75 104.395 Z" id="1" vector-effect="non-scaling-stroke"/><path d="M 406.152 34.473 L 406.152 127.246 A 13.454 13.454 0 0 1 405.614 131.09 A 12.293 12.293 0 0 1 405.176 132.324 A 12.414 12.414 0 0 1 402.49 136.377 A 12.55 12.55 0 0 1 398.486 139.062 A 12.422 12.422 0 0 1 393.719 140.038 A 14.154 14.154 0 0 1 393.555 140.039 L 336.133 140.039 A 46.522 46.522 0 0 1 330.184 139.64 A 58.128 58.128 0 0 1 326.123 138.965 A 47.245 47.245 0 0 1 315.625 135.498 A 53.984 53.984 0 0 1 306.226 129.9 A 59.917 59.917 0 0 1 305.615 129.443 Q 300.781 125.781 297.168 120.557 A 43.007 43.007 0 0 1 292.869 112.611 A 52.225 52.225 0 0 1 291.357 108.496 A 44.732 44.732 0 0 1 289.581 100.249 A 58.926 58.926 0 0 1 289.16 93.066 L 289.16 34.473 L 314.551 34.473 L 314.551 93.066 A 24.914 24.914 0 0 0 315.033 98.069 A 19.994 19.994 0 0 0 316.26 102.002 A 20.932 20.932 0 0 0 320.349 108.237 A 19.999 19.999 0 0 0 320.898 108.789 Q 323.828 111.621 327.783 113.135 A 23.227 23.227 0 0 0 334.909 114.611 A 26.974 26.974 0 0 0 336.328 114.648 L 380.762 114.648 L 380.762 34.473 L 406.152 34.473 Z" id="2" vector-effect="non-scaling-stroke"/><path d="M 522.363 34.473 L 522.363 59.863 L 465.234 59.863 A 16.49 16.49 0 0 0 462.252 60.115 Q 460.608 60.418 459.322 61.084 A 7.84 7.84 0 0 0 457.422 62.451 A 8.258 8.258 0 0 0 455.327 65.997 Q 454.921 67.32 454.819 68.918 A 17.341 17.341 0 0 0 454.785 70.02 L 454.785 140.039 L 429.395 140.039 L 429.395 70.02 A 44.228 44.228 0 0 1 429.81 63.818 A 33.365 33.365 0 0 1 431.055 58.301 A 35.911 35.911 0 0 1 433.569 52.308 A 30.255 30.255 0 0 1 435.498 49.17 A 31.041 31.041 0 0 1 441.224 42.964 A 29.056 29.056 0 0 1 441.895 42.432 Q 445.508 39.648 449.463 37.891 A 38.903 38.903 0 0 1 457.471 35.303 A 42.23 42.23 0 0 1 461.801 34.637 A 33.06 33.06 0 0 1 465.039 34.473 L 522.363 34.473 Z" id="3" vector-effect="non-scaling-stroke"/><path d="M 656.055 81.445 L 656.055 140.039 L 630.664 140.039 L 630.664 81.445 A 24.914 24.914 0 0 0 630.182 76.443 A 19.994 19.994 0 0 0 628.955 72.51 A 20.932 20.932 0 0 0 624.866 66.275 A 19.999 19.999 0 0 0 624.316 65.723 Q 621.387 62.891 617.432 61.377 A 23.227 23.227 0 0 0 610.306 59.9 A 26.974 26.974 0 0 0 608.887 59.863 L 564.453 59.863 L 564.453 140.039 L 539.063 140.039 L 539.063 47.07 A 12.554 12.554 0 0 1 539.851 42.608 A 12.009 12.009 0 0 1 540.039 42.139 Q 541.016 39.844 542.773 38.135 A 12.986 12.986 0 0 1 546.875 35.449 A 12.819 12.819 0 0 1 551.855 34.473 L 609.082 34.473 A 47.914 47.914 0 0 1 615.594 34.935 A 58.098 58.098 0 0 1 619.189 35.547 Q 624.512 36.621 629.736 39.014 A 50.921 50.921 0 0 1 639.697 45.068 Q 644.434 48.73 648.096 53.955 A 41.483 41.483 0 0 1 652.538 62.198 A 50.003 50.003 0 0 1 653.906 66.016 A 45.61 45.61 0 0 1 655.643 74.262 A 60.248 60.248 0 0 1 656.055 81.445 Z" id="4" vector-effect="non-scaling-stroke"/><path d="M 756.934 104.395 L 711.133 104.395 L 711.133 80.273 L 756.934 80.273 A 13.532 13.532 0 0 0 760.215 79.898 A 9.134 9.134 0 0 0 764.941 77.1 A 11.085 11.085 0 0 0 767.723 70.457 A 14.582 14.582 0 0 0 767.773 69.238 A 12.596 12.596 0 0 0 767.364 65.936 A 9.1 9.1 0 0 0 764.6 61.426 A 11.073 11.073 0 0 0 757.143 58.595 A 14.107 14.107 0 0 0 756.934 58.594 L 711.133 58.594 A 13.532 13.532 0 0 0 707.851 58.969 A 9.134 9.134 0 0 0 703.125 61.768 A 11.085 11.085 0 0 0 700.343 68.41 A 14.582 14.582 0 0 0 700.293 69.629 L 700.293 105.078 A 13.027 13.027 0 0 0 700.694 108.405 A 9.107 9.107 0 0 0 703.467 112.988 A 11.085 11.085 0 0 0 710.11 115.77 A 14.582 14.582 0 0 0 711.328 115.82 L 756.934 115.82 L 756.934 140.039 L 711.133 140.039 A 34.569 34.569 0 0 1 705.027 139.468 A 46.227 46.227 0 0 1 699.756 138.184 Q 693.652 136.328 688.428 132.178 Q 683.203 128.027 679.688 121.338 Q 676.378 115.04 676.184 106.19 A 50.748 50.748 0 0 1 676.172 105.078 L 676.172 69.434 A 34.569 34.569 0 0 1 676.743 63.328 A 46.227 46.227 0 0 1 678.027 58.057 Q 679.883 51.953 684.033 46.729 Q 688.184 41.504 694.873 37.988 Q 701.171 34.679 710.021 34.485 A 50.748 50.748 0 0 1 711.133 34.473 L 756.934 34.473 A 34.569 34.569 0 0 1 763.039 35.044 A 46.227 46.227 0 0 1 768.311 36.328 Q 774.414 38.184 779.639 42.334 Q 784.863 46.484 788.379 53.174 Q 791.689 59.471 791.882 68.322 A 50.748 50.748 0 0 1 791.895 69.434 A 34.569 34.569 0 0 1 791.324 75.539 A 46.227 46.227 0 0 1 790.039 80.811 Q 788.184 86.914 784.033 92.139 Q 779.883 97.363 773.193 100.879 Q 766.896 104.189 758.045 104.382 A 50.748 50.748 0 0 1 756.934 104.395 Z" id="5" vector-effect="non-scaling-stroke"/><path d="M 925.391 34.473 L 925.391 150.195 Q 925.391 156.738 923.73 161.963 Q 922.07 167.188 919.336 171.143 A 29.895 29.895 0 0 1 913.101 177.794 A 28.397 28.397 0 0 1 912.988 177.881 Q 909.375 180.664 905.42 182.422 A 39.331 39.331 0 0 1 897.961 184.902 A 36.535 36.535 0 0 1 897.461 185.01 A 40.297 40.297 0 0 1 892.609 185.723 A 33.508 33.508 0 0 1 889.844 185.84 L 844.043 185.84 L 844.043 160.449 L 889.844 160.449 Q 894.922 160.449 897.461 157.813 A 8.486 8.486 0 0 0 899.442 154.35 Q 899.843 153.042 899.956 151.468 A 17.81 17.81 0 0 0 900 150.195 L 900 34.473 L 925.391 34.473 Z M 889.844 114.648 L 889.844 140.039 L 844.043 140.039 A 36.771 36.771 0 0 1 837.337 139.394 A 47.634 47.634 0 0 1 832.373 138.184 Q 826.172 136.328 820.801 132.08 A 31.988 31.988 0 0 1 813.788 124.28 A 38.863 38.863 0 0 1 811.914 121.045 Q 808.728 114.894 808.429 106.217 A 52.976 52.976 0 0 1 808.398 104.395 L 808.398 34.473 L 833.789 34.473 L 833.789 104.395 A 15.039 15.039 0 0 0 834.066 107.378 Q 834.423 109.138 835.238 110.491 A 7.933 7.933 0 0 0 836.426 112.012 Q 839.063 114.648 844.238 114.648 L 889.844 114.648 Z" id="6" vector-effect="non-scaling-stroke"/></g></svg>