<svg width="934.95" height="111.675" viewBox="0 0 934.95 111.675" xmlns="http://www.w3.org/2000/svg"><g id="svgGroup" stroke-linecap="round" fill-rule="evenodd" font-size="9pt" stroke="#37474f3d" stroke-width="0.25mm" fill="#37474f68" style="stroke:#37474f3d;stroke-width:0.25mm;fill:#37474f68"><path d="M 59.7 71.55 L 96.075 5.475 A 6.863 6.863 0 0 1 97.069 4.088 A 2.747 2.747 0 0 1 98.1 3.375 Q 99.15 3 101.1 3 L 111.825 3 L 111.825 110.475 L 99.075 110.475 L 99.075 31.5 Q 99.075 29.925 99.15 28.125 Q 99.225 26.325 99.375 24.45 L 62.55 91.65 Q 60.675 95.025 57.3 95.025 L 55.2 95.025 A 5.574 5.574 0 0 1 50.378 92.348 A 9.209 9.209 0 0 1 49.95 91.65 L 12.3 24.225 Q 12.525 26.175 12.638 28.05 A 59.889 59.889 0 0 1 12.748 31.102 A 45.689 45.689 0 0 1 12.75 31.5 L 12.75 110.475 L 0 110.475 L 0 3 L 10.725 3 Q 12.675 3 13.725 3.375 Q 14.775 3.75 15.75 5.475 L 52.875 71.625 Q 53.925 73.425 54.713 75.413 Q 55.5 77.4 56.25 79.425 Q 57 77.325 57.825 75.413 Q 58.65 73.5 59.7 71.55 Z" id="0"/><path d="M 194.25 72.525 L 143.7 72.525 Q 143.818 78.178 144.953 82.675 A 31.431 31.431 0 0 0 145.65 85.05 A 29.314 29.314 0 0 0 147.778 89.917 A 22.672 22.672 0 0 0 150.6 93.938 Q 153.75 97.5 158.1 99.262 Q 162.45 101.025 167.85 101.025 A 36.189 36.189 0 0 0 171.981 100.802 Q 174.078 100.561 175.862 100.058 A 19.72 19.72 0 0 0 176.513 99.863 Q 180.15 98.7 182.775 97.35 Q 185.4 96 187.163 94.837 A 8.483 8.483 0 0 1 188.874 93.939 A 3.867 3.867 0 0 1 190.2 93.675 Q 191.85 93.675 192.75 94.95 L 196.5 99.825 Q 194.025 102.825 190.575 105.038 Q 187.125 107.25 183.188 108.675 Q 179.25 110.1 175.05 110.813 Q 170.85 111.525 166.725 111.525 A 41.739 41.739 0 0 1 158.933 110.817 A 36.053 36.053 0 0 1 152.212 108.863 Q 145.575 106.2 140.737 101.063 Q 135.9 95.925 133.2 88.35 Q 130.5 80.775 130.5 70.95 A 46.938 46.938 0 0 1 131.271 62.338 A 41.54 41.54 0 0 1 132.937 56.1 Q 135.375 49.2 139.95 44.138 A 31.974 31.974 0 0 1 149.855 36.772 A 36.301 36.301 0 0 1 151.125 36.188 A 33.718 33.718 0 0 1 159.308 33.814 A 41.846 41.846 0 0 1 165.975 33.3 A 36.269 36.269 0 0 1 173.321 34.024 A 31.56 31.56 0 0 1 178.575 35.588 Q 184.35 37.875 188.55 42.188 A 28.394 28.394 0 0 1 193.364 48.897 A 34.544 34.544 0 0 1 195.113 52.837 A 35.874 35.874 0 0 1 196.847 59.39 Q 197.355 62.389 197.452 65.693 A 53.791 53.791 0 0 1 197.475 67.275 Q 197.475 70.425 196.8 71.475 A 2.317 2.317 0 0 1 195.161 72.451 A 5.181 5.181 0 0 1 194.25 72.525 Z M 144.15 64.2 L 185.475 64.2 A 29.216 29.216 0 0 0 184.977 58.695 A 23.991 23.991 0 0 0 184.2 55.688 Q 182.925 51.825 180.45 49.012 Q 177.975 46.2 174.413 44.662 A 18.752 18.752 0 0 0 169.168 43.291 A 24.501 24.501 0 0 0 166.275 43.125 Q 160.402 43.125 156.049 45.184 A 17.593 17.593 0 0 0 151.05 48.713 A 21.994 21.994 0 0 0 146.714 55.018 Q 145.611 57.393 144.914 60.185 A 37.471 37.471 0 0 0 144.15 64.2 Z" id="1"/><path d="M 262.8 3 L 262.8 110.475 L 248.25 110.475 L 248.25 3 L 262.8 3 Z" id="3"/><path d="M 302.85 110.475 L 289.5 110.475 L 289.5 34.5 L 297.45 34.5 Q 300.3 34.5 301.05 37.275 L 302.1 45.525 A 43.728 43.728 0 0 1 309.816 38.74 A 40.782 40.782 0 0 1 313.163 36.675 A 26.575 26.575 0 0 1 321.436 33.795 A 33.581 33.581 0 0 1 327.3 33.3 A 32.227 32.227 0 0 1 332.641 33.723 A 24.275 24.275 0 0 1 338.288 35.362 Q 343.05 37.425 346.237 41.212 A 24.538 24.538 0 0 1 350.025 47.45 A 30.021 30.021 0 0 1 351.075 50.325 A 36.235 36.235 0 0 1 352.442 56.951 A 45.387 45.387 0 0 1 352.725 62.1 L 352.725 110.475 L 339.375 110.475 L 339.375 62.1 Q 339.375 53.475 335.437 48.713 A 12.298 12.298 0 0 0 329.691 44.862 Q 327.888 44.263 325.742 44.058 A 24.563 24.563 0 0 0 323.4 43.95 Q 317.475 43.95 312.338 46.8 Q 307.2 49.65 302.85 54.525 L 302.85 110.475 Z" id="4"/><path d="M 416.475 5.475 L 478.725 86.475 Q 478.5 84.525 478.425 82.688 Q 478.35 80.85 478.35 79.125 L 478.35 3 L 491.1 3 L 491.1 110.475 L 483.75 110.475 A 6.955 6.955 0 0 1 481.479 110.138 A 4.654 4.654 0 0 1 480.862 109.875 A 6.403 6.403 0 0 1 479.158 108.53 A 10.668 10.668 0 0 1 478.575 107.85 L 416.4 26.925 Q 416.55 28.8 416.625 30.6 Q 416.7 32.4 416.7 33.9 L 416.7 110.475 L 403.95 110.475 L 403.95 3 L 411.45 3 Q 413.4 3 414.337 3.487 A 5.002 5.002 0 0 1 415.475 4.356 A 12.245 12.245 0 0 1 416.475 5.475 Z" id="6"/><path d="M 513.45 34.5 L 526.8 34.5 L 526.8 82.95 Q 526.8 91.443 530.654 96.154 A 13.757 13.757 0 0 0 530.775 96.3 A 12.487 12.487 0 0 0 536.7 100.176 Q 538.538 100.76 540.72 100.942 A 24.681 24.681 0 0 0 542.775 101.025 Q 548.625 101.025 553.8 98.25 A 32.303 32.303 0 0 0 560.237 93.671 A 38.955 38.955 0 0 0 563.325 90.525 L 563.325 34.5 L 576.675 34.5 L 576.675 110.475 L 568.725 110.475 Q 565.875 110.475 565.125 107.7 L 564.075 99.525 A 42.761 42.761 0 0 1 556.339 106.291 A 40.036 40.036 0 0 1 552.975 108.338 Q 546.825 111.675 538.875 111.675 A 32.227 32.227 0 0 1 533.534 111.252 A 24.275 24.275 0 0 1 527.887 109.613 Q 523.125 107.55 519.9 103.8 A 23.454 23.454 0 0 1 516.097 97.596 A 28.713 28.713 0 0 1 515.063 94.725 A 36.912 36.912 0 0 1 513.737 88.192 A 46.342 46.342 0 0 1 513.45 82.95 L 513.45 34.5 Z" id="7"/><path d="M 603 92.175 L 603 45.675 L 593.85 45.675 Q 592.65 45.675 591.825 44.962 A 2.533 2.533 0 0 1 591.02 43.2 A 4.826 4.826 0 0 1 591 42.75 L 591 37.425 L 603.45 35.85 L 606.525 12.375 Q 606.675 11.25 607.5 10.537 Q 608.325 9.825 609.6 9.825 L 616.35 9.825 L 616.35 36 L 638.1 36 L 638.1 45.675 L 616.35 45.675 L 616.35 91.275 Q 616.35 96.075 618.675 98.4 Q 621 100.725 624.675 100.725 A 11.785 11.785 0 0 0 627.403 100.434 A 8.139 8.139 0 0 0 628.313 100.163 A 16.275 16.275 0 0 0 630.687 99.092 A 11.633 11.633 0 0 0 630.975 98.925 Q 632.1 98.25 632.887 97.688 A 2.897 2.897 0 0 1 634.033 97.146 A 1.42 1.42 0 0 1 634.275 97.125 A 2.019 2.019 0 0 1 635.826 97.959 A 4.372 4.372 0 0 1 636.15 98.4 L 640.05 104.775 A 24.095 24.095 0 0 1 633.647 109.034 A 28.741 28.741 0 0 1 631.725 109.838 Q 626.85 111.675 621.675 111.675 A 26.929 26.929 0 0 1 617.187 111.32 Q 614.651 110.892 612.544 109.944 A 15.008 15.008 0 0 1 607.838 106.65 A 15.818 15.818 0 0 1 604.406 101.077 Q 603.659 99.054 603.309 96.668 A 30.981 30.981 0 0 1 603 92.175 Z" id="8"/><path d="M 701.1 42.15 L 698.1 47.025 Q 697.2 48.675 695.325 48.675 A 4.46 4.46 0 0 1 693.511 48.23 A 8.164 8.164 0 0 1 692.775 47.85 A 48.721 48.721 0 0 0 690.745 46.746 A 79.461 79.461 0 0 0 689.288 46.012 A 28.291 28.291 0 0 0 686.402 44.805 A 41.613 41.613 0 0 0 684.375 44.137 A 19.541 19.541 0 0 0 680.89 43.446 A 29.416 29.416 0 0 0 677.625 43.275 A 21.836 21.836 0 0 0 673.486 43.646 A 16.859 16.859 0 0 0 671.55 44.137 A 15.406 15.406 0 0 0 667.877 45.832 A 12.407 12.407 0 0 0 666.938 46.5 Q 665.025 48 664.012 49.988 Q 663 51.975 663 54.3 A 7.713 7.713 0 0 0 663.757 57.781 A 6.65 6.65 0 0 0 664.688 59.175 A 13.566 13.566 0 0 0 667.753 61.756 A 18.428 18.428 0 0 0 669.15 62.55 A 35.953 35.953 0 0 0 673.32 64.35 A 46.28 46.28 0 0 0 675.45 65.062 Q 678.975 66.15 682.688 67.387 Q 686.4 68.625 689.925 70.125 Q 693.45 71.625 696.225 73.875 Q 699 76.125 700.688 79.387 A 14.746 14.746 0 0 1 702.096 83.724 A 20.936 20.936 0 0 1 702.375 87.225 A 25.764 25.764 0 0 1 701.448 94.218 A 23.198 23.198 0 0 1 700.5 96.937 Q 698.625 101.4 694.95 104.663 A 24.901 24.901 0 0 1 689.416 108.347 A 31.189 31.189 0 0 1 685.95 109.8 Q 680.625 111.675 673.65 111.675 Q 665.7 111.675 659.25 109.087 A 40.896 40.896 0 0 1 653.459 106.238 A 33.092 33.092 0 0 1 648.3 102.45 L 651.45 97.35 Q 652.05 96.375 652.875 95.85 A 3.721 3.721 0 0 1 654.681 95.335 A 6.397 6.397 0 0 1 655.05 95.325 A 4.513 4.513 0 0 1 657.249 95.965 A 7.609 7.609 0 0 1 657.9 96.375 Q 659.4 97.425 661.538 98.7 Q 663.675 99.975 666.713 101.025 A 17.655 17.655 0 0 0 669.839 101.77 Q 671.859 102.075 674.325 102.075 Q 678.225 102.075 681.15 101.063 A 15.593 15.593 0 0 0 684.702 99.339 A 12.14 12.14 0 0 0 686.025 98.325 Q 687.975 96.6 688.913 94.35 Q 689.85 92.1 689.85 89.55 A 9.026 9.026 0 0 0 689.286 86.271 A 7.051 7.051 0 0 0 688.162 84.337 A 13.47 13.47 0 0 0 684.862 81.481 A 17.681 17.681 0 0 0 683.7 80.813 A 33.473 33.473 0 0 0 679.564 78.998 A 43.38 43.38 0 0 0 677.363 78.262 Q 673.8 77.175 670.088 75.975 Q 666.375 74.775 662.813 73.238 Q 659.25 71.7 656.475 69.375 Q 653.7 67.05 652.012 63.637 Q 650.331 60.237 650.325 55.384 A 28.052 28.052 0 0 1 650.325 55.35 Q 650.325 51 652.125 46.988 Q 653.925 42.975 657.375 39.938 A 23.882 23.882 0 0 1 662.511 36.519 A 30.352 30.352 0 0 1 665.85 35.1 A 29.682 29.682 0 0 1 671.546 33.702 Q 674.106 33.325 676.945 33.302 A 45.775 45.775 0 0 1 677.325 33.3 A 41.861 41.861 0 0 1 683.593 33.752 Q 687.434 34.334 690.788 35.662 A 32.934 32.934 0 0 1 698.205 39.73 A 30.199 30.199 0 0 1 701.1 42.15 Z" id="9"/><path d="M 733.05 110.475 L 719.7 110.475 L 719.7 0 L 733.05 0 L 733.05 44.7 A 42.141 42.141 0 0 1 740.425 38.442 A 38.967 38.967 0 0 1 743.85 36.412 A 26.536 26.536 0 0 1 751.521 33.814 A 33.575 33.575 0 0 1 757.5 33.3 A 32.227 32.227 0 0 1 762.841 33.723 A 24.275 24.275 0 0 1 768.488 35.362 Q 773.25 37.425 776.438 41.212 A 24.538 24.538 0 0 1 780.225 47.45 A 30.021 30.021 0 0 1 781.275 50.325 A 36.235 36.235 0 0 1 782.642 56.951 A 45.387 45.387 0 0 1 782.925 62.1 L 782.925 110.475 L 769.575 110.475 L 769.575 62.1 Q 769.575 53.475 765.638 48.713 A 12.298 12.298 0 0 0 759.891 44.862 Q 758.088 44.263 755.942 44.058 A 24.563 24.563 0 0 0 753.6 43.95 Q 747.675 43.95 742.538 46.8 Q 737.4 49.65 733.05 54.525 L 733.05 110.475 Z" id="10"/><path d="M 861.45 72.525 L 810.9 72.525 Q 811.018 78.178 812.153 82.675 A 31.431 31.431 0 0 0 812.85 85.05 A 29.314 29.314 0 0 0 814.978 89.917 A 22.672 22.672 0 0 0 817.8 93.938 Q 820.95 97.5 825.3 99.262 Q 829.65 101.025 835.05 101.025 A 36.189 36.189 0 0 0 839.181 100.802 Q 841.278 100.561 843.062 100.058 A 19.72 19.72 0 0 0 843.713 99.863 Q 847.35 98.7 849.975 97.35 Q 852.6 96 854.363 94.837 A 8.483 8.483 0 0 1 856.074 93.939 A 3.867 3.867 0 0 1 857.4 93.675 Q 859.05 93.675 859.95 94.95 L 863.7 99.825 Q 861.225 102.825 857.775 105.038 Q 854.325 107.25 850.387 108.675 Q 846.45 110.1 842.25 110.813 Q 838.05 111.525 833.925 111.525 A 41.739 41.739 0 0 1 826.133 110.817 A 36.053 36.053 0 0 1 819.412 108.863 Q 812.775 106.2 807.938 101.063 Q 803.1 95.925 800.4 88.35 Q 797.7 80.775 797.7 70.95 A 46.938 46.938 0 0 1 798.471 62.338 A 41.54 41.54 0 0 1 800.137 56.1 Q 802.575 49.2 807.15 44.138 A 31.974 31.974 0 0 1 817.055 36.772 A 36.301 36.301 0 0 1 818.325 36.188 A 33.718 33.718 0 0 1 826.508 33.814 A 41.846 41.846 0 0 1 833.175 33.3 A 36.269 36.269 0 0 1 840.521 34.024 A 31.56 31.56 0 0 1 845.775 35.588 Q 851.55 37.875 855.75 42.188 A 28.394 28.394 0 0 1 860.564 48.897 A 34.544 34.544 0 0 1 862.313 52.837 A 35.874 35.874 0 0 1 864.047 59.39 Q 864.555 62.389 864.652 65.693 A 53.791 53.791 0 0 1 864.675 67.275 Q 864.675 70.425 864 71.475 A 2.317 2.317 0 0 1 862.361 72.451 A 5.181 5.181 0 0 1 861.45 72.525 Z M 811.35 64.2 L 852.675 64.2 A 29.216 29.216 0 0 0 852.177 58.695 A 23.991 23.991 0 0 0 851.4 55.688 Q 850.125 51.825 847.65 49.012 Q 845.175 46.2 841.613 44.662 A 18.752 18.752 0 0 0 836.368 43.291 A 24.501 24.501 0 0 0 833.475 43.125 Q 827.602 43.125 823.249 45.184 A 17.593 17.593 0 0 0 818.25 48.713 A 21.994 21.994 0 0 0 813.914 55.018 Q 812.811 57.393 812.114 60.185 A 37.471 37.471 0 0 0 811.35 64.2 Z" id="11"/><path d="M 883.2 0 L 896.55 0 L 896.55 110.475 L 883.2 110.475 L 883.2 0 Z" id="12"/><path d="M 921.6 0 L 934.95 0 L 934.95 110.475 L 921.6 110.475 L 921.6 0 Z" id="13"/></g></svg>