<svg width="574.024" height="150.195" viewBox="0 0 574.024 150.195" xmlns="http://www.w3.org/2000/svg"><g id="svgGroup" stroke-linecap="round" fill-rule="evenodd" font-size="9pt" stroke="#37474f3d" stroke-width=".25mm" fill="#37474f68" style="stroke:#37474f3d;stroke-width:.25mm;fill:#37474f68"><path d="M 99.122 150.195 L 1.173 150.195 L 1.173 124.805 L 99.122 124.805 A 20.045 20.045 0 0 0 103.771 124.297 A 13.224 13.224 0 0 0 110.499 120.508 A 14.466 14.466 0 0 0 114.094 113.509 A 21.219 21.219 0 0 0 114.551 108.984 A 20.073 20.073 0 0 0 114.173 105.016 A 16.839 16.839 0 0 0 113.477 102.539 Q 112.403 99.609 110.401 97.461 A 13.506 13.506 0 0 0 105.697 94.215 A 15.553 15.553 0 0 0 105.518 94.141 A 15.949 15.949 0 0 0 101.075 93.064 A 19.585 19.585 0 0 0 99.122 92.969 L 40.723 92.969 A 39.706 39.706 0 0 1 33.702 92.312 A 53.277 53.277 0 0 1 27.442 90.771 A 39.841 39.841 0 0 1 14.21 83.691 A 36.434 36.434 0 0 1 6.64 75.328 A 45.302 45.302 0 0 1 4.053 70.898 A 34.87 34.87 0 0 1 1.014 62.109 Q 0.191 58.182 0.036 53.674 A 61.705 61.705 0 0 1 0.001 51.562 A 53.493 53.493 0 0 1 0.663 42.906 Q 1.441 38.167 3.132 34.23 A 30.76 30.76 0 0 1 4.053 32.275 A 42.663 42.663 0 0 1 9.425 24.165 A 35.764 35.764 0 0 1 14.21 19.482 Q 20.313 14.551 27.442 12.354 Q 34.571 10.156 40.723 10.156 L 127.149 10.156 L 127.149 35.547 L 40.723 35.547 A 19.104 19.104 0 0 0 36.034 36.09 A 13.123 13.123 0 0 0 29.444 39.941 A 14.938 14.938 0 0 0 25.807 47.224 A 21.548 21.548 0 0 0 25.391 51.563 A 21.376 21.376 0 0 0 25.903 56.381 Q 26.759 60.083 29.046 62.699 A 13.547 13.547 0 0 0 29.444 63.135 A 13.299 13.299 0 0 0 36.323 66.925 A 20.005 20.005 0 0 0 40.723 67.383 L 99.122 67.383 L 99.317 67.383 A 41.516 41.516 0 0 1 104.635 67.867 A 51.08 51.08 0 0 1 108.008 68.506 Q 112.598 69.531 117.139 71.68 A 44.057 44.057 0 0 1 125.782 77.1 A 36.348 36.348 0 0 1 132.657 84.392 A 40.786 40.786 0 0 1 133.057 84.961 A 36.775 36.775 0 0 1 136.939 92.265 A 44.035 44.035 0 0 1 138.087 95.508 A 40.048 40.048 0 0 1 139.587 102.704 A 53.283 53.283 0 0 1 139.942 108.984 A 51.235 51.235 0 0 1 139.466 116.125 A 39.159 39.159 0 0 1 138.038 122.51 A 43.738 43.738 0 0 1 135.346 129.143 A 36.249 36.249 0 0 1 133.008 133.105 A 33.571 33.571 0 0 1 125.684 140.918 A 45.639 45.639 0 0 1 118.389 145.522 A 41.519 41.519 0 0 1 116.993 146.191 A 43.543 43.543 0 0 1 107.862 149.219 Q 103.223 150.195 99.122 150.195 Z" id="0" vector-effect="non-scaling-stroke"/><path d="M 222.462 92.578 L 282.227 150.195 L 245.606 150.195 L 194.434 100.781 Q 190.412 97.124 190.412 91.756 A 14.818 14.818 0 0 1 190.43 91.016 A 13.24 13.24 0 0 1 191.846 85.889 A 11.901 11.901 0 0 1 195.215 81.836 L 241.602 44.434 L 282.227 44.434 L 222.462 92.578 Z M 183.985 0 L 183.985 150.195 L 158.594 150.195 L 158.594 0 L 183.985 0 Z" id="1" vector-effect="non-scaling-stroke"/><path d="M 322.266 44.629 L 322.266 150.195 L 296.876 150.195 L 296.876 44.629 L 322.266 44.629 Z M 322.266 0 L 322.266 22.949 L 296.876 22.949 L 296.876 0 L 322.266 0 Z" id="2" vector-effect="non-scaling-stroke"/><path d="M 392.969 124.805 L 392.969 150.195 L 381.641 150.195 A 36.771 36.771 0 0 1 374.935 149.55 A 47.634 47.634 0 0 1 369.971 148.34 Q 363.77 146.484 358.399 142.236 A 31.988 31.988 0 0 1 351.386 134.436 A 38.863 38.863 0 0 1 349.512 131.201 Q 346.326 125.05 346.028 116.373 A 52.976 52.976 0 0 1 345.997 114.551 L 345.997 0 L 371.387 0 L 371.387 114.551 A 12.156 12.156 0 0 0 371.799 117.799 A 9.031 9.031 0 0 0 374.317 122.021 A 10.035 10.035 0 0 0 380.814 124.779 A 13.245 13.245 0 0 0 381.641 124.805 L 392.969 124.805 Z" id="3" vector-effect="non-scaling-stroke"/><path d="M 455.665 124.805 L 455.665 150.195 L 444.337 150.195 A 36.771 36.771 0 0 1 437.63 149.55 A 47.634 47.634 0 0 1 432.667 148.34 Q 426.465 146.484 421.094 142.236 A 31.988 31.988 0 0 1 414.081 134.436 A 38.863 38.863 0 0 1 412.208 131.201 Q 409.022 125.05 408.723 116.373 A 52.976 52.976 0 0 1 408.692 114.551 L 408.692 0 L 434.083 0 L 434.083 114.551 A 12.156 12.156 0 0 0 434.495 117.799 A 9.031 9.031 0 0 0 437.012 122.021 A 10.035 10.035 0 0 0 443.509 124.779 A 13.245 13.245 0 0 0 444.337 124.805 L 455.665 124.805 Z" id="4" vector-effect="non-scaling-stroke"/><path d="M 538.38 150.195 L 469.63 150.195 L 469.63 124.805 L 538.184 124.805 Q 543.36 124.805 545.997 122.168 A 8.479 8.479 0 0 0 548.111 118.522 Q 548.503 117.207 548.601 115.631 A 17.4 17.4 0 0 0 548.633 114.551 Q 548.145 104.395 538.38 104.395 L 499.024 104.395 A 40.184 40.184 0 0 1 492.619 103.911 Q 489.065 103.337 486.102 102.081 A 23.457 23.457 0 0 1 484.766 101.465 A 32.182 32.182 0 0 1 479.015 97.822 A 26.24 26.24 0 0 1 475.245 94.141 Q 471.583 89.746 469.971 84.668 A 36.566 36.566 0 0 1 468.776 79.835 A 27.284 27.284 0 0 1 468.36 75.195 A 39.6 39.6 0 0 1 468.841 68.851 Q 469.566 64.384 471.387 60.889 Q 474.415 55.078 479.005 51.465 A 29.882 29.882 0 0 1 488.965 46.24 Q 494.337 44.629 499.024 44.629 L 561.426 44.629 L 561.426 70.02 L 499.219 70.02 A 14.146 14.146 0 0 0 498.08 70.062 Q 496.954 70.154 496.195 70.439 A 4.16 4.16 0 0 0 496.143 70.459 Q 495.23 70.816 494.704 71.368 A 2.662 2.662 0 0 0 494.483 71.631 A 3.437 3.437 0 0 0 493.985 72.578 A 3.08 3.08 0 0 0 493.848 73.193 A 13.967 13.967 0 0 0 493.752 74.609 A 12.647 12.647 0 0 0 493.751 74.805 A 9.269 9.269 0 0 0 493.85 75.714 Q 493.925 76.175 494.045 76.555 A 3.75 3.75 0 0 0 494.337 77.246 A 3.736 3.736 0 0 0 494.792 77.901 A 2.723 2.723 0 0 0 495.557 78.516 A 3.751 3.751 0 0 0 496.766 78.909 A 4.585 4.585 0 0 0 497.217 78.955 A 34.478 34.478 0 0 0 498.969 79.004 A 31.779 31.779 0 0 0 499.024 79.004 L 538.38 79.004 Q 547.239 79.004 553.687 81.897 A 26.974 26.974 0 0 1 554.981 82.52 A 36.144 36.144 0 0 1 561.816 87.029 A 29.97 29.97 0 0 1 566.016 91.357 A 35.057 35.057 0 0 1 572.12 102.93 A 46.67 46.67 0 0 1 573.533 108.869 A 34.658 34.658 0 0 1 574.024 114.551 Q 574.024 121.094 572.364 126.318 Q 570.704 131.543 567.969 135.498 A 29.895 29.895 0 0 1 561.734 142.149 A 28.397 28.397 0 0 1 561.622 142.236 Q 558.008 145.02 554.053 146.777 A 38.903 38.903 0 0 1 546.046 149.365 A 41.596 41.596 0 0 1 541.388 150.058 A 33.963 33.963 0 0 1 538.38 150.195 Z" id="5" vector-effect="non-scaling-stroke"/></g></svg>