<svg width="572.266" height="151.966" viewBox="0 0 572.266 151.966" xmlns="http://www.w3.org/2000/svg">
    <g id="svgGroup" stroke-linecap="round" fill-rule="evenodd" font-size="9pt" stroke="#37474f3d" stroke-width=".25mm"
        fill="#37474f68" style="stroke:#37474f3d;stroke-width:.25mm;fill:#37474f68">
        <path
            d="M 160.84 10.156 L 186.621 10.156 L 163.184 141.406 Q 162.402 145.313 159.668 148.145 A 12.396 12.396 0 0 1 153.027 151.758 A 14.223 14.223 0 0 1 150.631 151.966 A 12.748 12.748 0 0 1 145.459 150.879 A 12.225 12.225 0 0 1 139.844 145.996 L 93.359 69.629 L 46.777 145.996 Q 45.117 148.828 42.236 150.391 Q 39.355 151.953 36.035 151.953 Q 31.445 151.953 27.93 149.023 Q 24.414 146.094 23.633 141.406 L 0 10.156 L 25.781 10.156 L 42.578 102.637 L 82.617 38.77 Q 84.277 35.938 87.158 34.375 Q 90.039 32.813 93.359 32.813 Q 96.68 32.813 99.512 34.375 Q 102.344 35.938 104.199 38.77 L 144.043 102.637 L 160.84 10.156 Z"
            id="0" vector-effect="non-scaling-stroke" />
        <path
            d="M 317.578 80.176 L 317.578 114.551 Q 317.578 121.094 315.918 126.318 Q 314.258 131.543 311.523 135.498 A 29.895 29.895 0 0 1 305.288 142.149 A 28.397 28.397 0 0 1 305.176 142.236 Q 301.563 145.02 297.607 146.777 A 38.903 38.903 0 0 1 289.6 149.365 A 41.596 41.596 0 0 1 284.942 150.058 A 33.963 33.963 0 0 1 281.934 150.195 L 236.133 150.195 A 34.984 34.984 0 0 1 230.345 149.687 A 48.28 48.28 0 0 1 224.609 148.34 Q 218.359 146.484 213.037 142.236 Q 207.715 137.988 204.15 131.201 A 29.408 29.408 0 0 1 201.477 123.645 Q 200.586 119.482 200.586 114.551 L 200.586 80.176 A 44.622 44.622 0 0 1 201.174 72.733 Q 201.896 68.466 203.505 64.941 A 26.397 26.397 0 0 1 204.15 63.623 A 37.119 37.119 0 0 1 208.859 56.624 A 31.174 31.174 0 0 1 213.037 52.588 Q 218.359 48.34 224.609 46.484 Q 230.859 44.629 236.133 44.629 L 281.934 44.629 Q 290.793 44.629 297.242 47.522 A 26.974 26.974 0 0 1 298.535 48.145 A 36.144 36.144 0 0 1 305.37 52.654 A 29.97 29.97 0 0 1 309.57 56.982 A 35.057 35.057 0 0 1 315.674 68.555 A 46.67 46.67 0 0 1 317.087 74.494 A 34.658 34.658 0 0 1 317.578 80.176 Z M 292.188 114.551 L 292.188 80.371 Q 292.188 75.098 289.551 72.559 A 8.486 8.486 0 0 0 286.088 70.577 Q 284.78 70.176 283.206 70.064 A 17.81 17.81 0 0 0 281.934 70.02 L 236.328 70.02 A 15.955 15.955 0 0 0 233.393 70.272 Q 231.724 70.585 230.42 71.285 A 7.89 7.89 0 0 0 228.613 72.607 A 8.258 8.258 0 0 0 226.518 76.153 Q 226.112 77.476 226.011 79.074 A 17.341 17.341 0 0 0 225.977 80.176 L 225.977 114.551 A 15.039 15.039 0 0 0 226.254 117.534 Q 226.61 119.294 227.426 120.647 A 7.933 7.933 0 0 0 228.613 122.168 Q 230.902 124.457 235.032 124.759 A 17.794 17.794 0 0 0 236.328 124.805 L 281.934 124.805 Q 285.394 124.805 287.676 123.626 A 7.477 7.477 0 0 0 289.648 122.168 A 8.486 8.486 0 0 0 291.63 118.705 Q 292.031 117.397 292.143 115.823 A 17.81 17.81 0 0 0 292.187 114.551 Z"
            id="1" vector-effect="non-scaling-stroke" />
        <path
            d="M 431.543 44.629 L 431.543 70.02 L 374.414 70.02 A 16.49 16.49 0 0 0 371.431 70.271 Q 369.788 70.574 368.502 71.241 A 7.84 7.84 0 0 0 366.602 72.607 A 8.258 8.258 0 0 0 364.506 76.153 Q 364.101 77.476 363.999 79.074 A 17.341 17.341 0 0 0 363.965 80.176 L 363.965 150.195 L 338.574 150.195 L 338.574 80.176 A 44.228 44.228 0 0 1 338.989 73.975 A 33.365 33.365 0 0 1 340.234 68.457 A 35.911 35.911 0 0 1 342.748 62.464 A 30.255 30.255 0 0 1 344.678 59.326 A 31.041 31.041 0 0 1 350.404 53.12 A 29.056 29.056 0 0 1 351.074 52.588 Q 354.688 49.805 358.643 48.047 A 38.903 38.903 0 0 1 366.65 45.459 A 42.23 42.23 0 0 1 370.981 44.794 A 33.06 33.06 0 0 1 374.219 44.629 L 431.543 44.629 Z"
            id="2" vector-effect="non-scaling-stroke" />
        <path
            d="M 512.5 92.578 L 572.266 150.195 L 535.645 150.195 L 484.473 100.781 Q 480.45 97.124 480.45 91.756 A 14.818 14.818 0 0 1 480.469 91.016 A 13.24 13.24 0 0 1 481.885 85.889 A 11.901 11.901 0 0 1 485.254 81.836 L 531.641 44.434 L 572.266 44.434 L 512.5 92.578 Z M 474.023 0 L 474.023 150.195 L 448.633 150.195 L 448.633 0 L 474.023 0 Z"
            id="3" vector-effect="non-scaling-stroke" />
    </g>
</svg>